<svg width="1440" height="1080" viewBox="0 0 1440 1080" fill="none" xmlns="http://www.w3.org/2000/svg">
<path d="M-570.623 1269.01L-571.092 1268.2L-1242.71 125.254L-1240.43 125.09L2010.62 -111.027L2011.09 -110.226L2682.71 1032.72L2680.43 1032.89L-570.623 1269.01ZM-1237.21 126.527L-567.002 1267.07L2677.21 1031.45L2007 -109.091L-1237.21 126.527Z" fill="#D6EAFF"/>
<path d="M2583.34 830.771L-664.701 1067.99L-663.754 1069.59L2584.29 832.373L2583.34 830.771Z" fill="#D6EAFF"/>
<path d="M-760.097 942.512L-761.043 940.909L2487.73 704.958L2488.68 706.561L-760.097 942.512Z" fill="#D6EAFF"/>
<path d="M2391.7 541.363L-856.672 778.232L-855.727 779.835L2392.65 542.967L2391.7 541.363Z" fill="#D6EAFF"/>
<path d="M-951.853 616.184L-952.799 614.582L2295.97 378.631L2296.92 380.234L-951.853 616.184Z" fill="#D6EAFF"/>
<path d="M-1047.73 453.021L-1048.68 451.418L2200.1 215.466L2201.04 217.069L-1047.73 453.021Z" fill="#D6EAFF"/>
<path d="M2104.06 51.8515L-1144.31 288.72L-1143.36 290.323L2105.01 53.4546L2104.06 51.8515Z" fill="#D6EAFF"/>
<path d="M872.636 -187.103L868.077 -186.772L1539.18 955.351L1543.74 955.02L872.636 -187.103Z" fill="#D6EAFF"/>
<path d="M331.182 -147.782L326.622 -147.451L997.726 994.672L1002.29 994.341L331.182 -147.782Z" fill="#D6EAFF"/>
<path d="M-210.27 -108.46L-214.83 -108.129L456.275 1033.99L460.834 1033.66L-210.27 -108.46Z" fill="#D6EAFF"/>
</svg>
