<svg width="71" height="55" viewBox="0 0 71 55" fill="none" xmlns="http://www.w3.org/2000/svg">
<path d="M23.4081 38.3459C27.6459 38.0044 28.4229 36.7856 28.9307 34.052C31.5111 39.8349 33.8766 42.3437 39.8029 45.5024C36.8392 46.4049 35.5288 47.1479 34.2079 49.1457L30.4345 45.5024L23.4081 53.83C22.1612 54.8582 20.5907 51.5354 18.2034 53.0493C15.816 54.5632 15.7961 48.6904 17.5528 46.9337L26.4008 41.729L23.4081 38.3459Z" fill="url(#paint0_linear_226_380)"/>
<path d="M27.5098 19.405C27.5098 18.0833 29.6006 14.1675 31.1426 12.1281C35.3573 6.55352 39.8804 3.2651 48.0826 4.39158L50.3458 4.85595C41.6051 4.53171 35.8539 7.97187 31.1426 13.2806C29.6783 14.9306 27.9115 18.6003 27.5098 19.405Z" fill="#177BEA"/>
<path d="M39.8029 40.4054C41.4519 42.1666 47.1398 44.9682 50.276 45.9038C58.8483 48.461 64.6865 47.6151 66.4279 36.6337L66.7168 33.3991C63.7679 43.9338 57.2691 45.9969 48.838 44.3679C46.2175 43.8616 40.961 41.0134 39.8029 40.4054Z" fill="#177BEA"/>
<path d="M11.6797 30.1984L26.3461 30.3202C27.35 30.3286 28.1578 31.1776 28.1497 32.2172C28.1417 33.2562 27.3213 34.0922 26.3169 34.0839L11.65 33.9621C10.6461 33.9538 9.83831 33.1047 9.84636 32.0652C9.85488 31.0261 10.6753 30.1901 11.6797 30.1984Z" fill="#536CE3"/>
<path d="M5.4815 26.2915C5.48955 25.2525 6.3104 24.4164 7.31433 24.4248L21.9812 24.5465C22.9856 24.5549 23.7929 25.404 23.7849 26.4435C23.7768 27.483 22.9564 28.3185 21.952 28.3102L7.28515 28.1884C6.28122 28.1801 5.47344 27.331 5.4815 26.2915Z" fill="#536CE3"/>
<path d="M9.71591 17.9526L24.3823 18.0744C25.3862 18.0827 26.194 18.9318 26.186 19.9713C26.1779 21.0108 25.3575 21.8464 24.3531 21.838L9.68627 21.7162C8.68234 21.7079 7.87456 20.8588 7.88262 19.8193C7.89068 18.7798 8.71152 17.9443 9.71591 17.9526Z" fill="#536CE3"/>
<path d="M67.6262 25.7306C67.6262 36.6333 58.7878 45.4716 47.8851 45.4716C36.9824 45.4716 28.144 36.6333 28.144 25.7306C28.144 14.8279 36.9824 5.9895 47.8851 5.9895C58.7878 5.9895 67.6262 14.8279 67.6262 25.7306ZM32.2081 25.7306C32.2081 34.3887 39.2269 41.4076 47.8851 41.4076C56.5433 41.4076 63.5621 34.3887 63.5621 25.7306C63.5621 17.0724 56.5433 10.0536 47.8851 10.0536C39.2269 10.0536 32.2081 17.0724 32.2081 25.7306Z" fill="url(#paint1_linear_226_380)"/>
<path d="M45.2964 20.3086C45.3068 20.3503 45.3172 20.3867 45.3276 20.418C45.338 20.4388 45.3485 20.4648 45.3589 20.4961C45.3693 20.5273 45.3797 20.5586 45.3901 20.5898C45.4005 20.6211 45.411 20.6523 45.4214 20.6836C45.4318 20.7357 45.4318 20.7826 45.4214 20.8242C45.411 20.8659 45.4005 20.9128 45.3901 20.9648C45.3901 21.0169 45.3901 21.0638 45.3901 21.1055C45.3901 21.1471 45.3849 21.1888 45.3745 21.2305C45.3432 21.3763 45.3172 21.4805 45.2964 21.543C45.286 21.5846 45.2755 21.6211 45.2651 21.6523C45.2547 21.6836 45.2443 21.7201 45.2339 21.7617C45.213 21.8034 45.2026 21.8555 45.2026 21.918C45.2026 21.9701 45.1974 22.0273 45.187 22.0898C45.1453 22.2148 45.1245 22.293 45.1245 22.3242C45.1349 22.3451 45.1349 22.3659 45.1245 22.3867C45.1037 22.5013 45.088 22.5742 45.0776 22.6055C45.0776 22.6367 45.0776 22.6628 45.0776 22.6836C45.036 22.7982 45.0047 22.8867 44.9839 22.9492C44.9735 22.9909 44.963 23.0326 44.9526 23.0742C44.9422 23.1159 44.937 23.1628 44.937 23.2148C44.9162 23.2461 44.8901 23.2773 44.8589 23.3086C44.8276 23.3398 44.8016 23.3763 44.7807 23.418C44.6766 23.3763 44.6141 23.3503 44.5932 23.3398C44.562 23.3294 44.5255 23.319 44.4839 23.3086C44.4526 23.2982 44.4266 23.2826 44.4057 23.2617C44.3537 23.2721 44.2807 23.2617 44.187 23.2305C44.0724 23.1992 44.0151 23.1888 44.0151 23.1992C44.0151 23.2096 44.0047 23.2096 43.9839 23.1992C43.9526 23.1888 43.9057 23.1888 43.8432 23.1992C43.7912 23.1992 43.7391 23.1992 43.687 23.1992C43.6557 23.1992 43.6297 23.1992 43.6089 23.1992C43.588 23.1888 43.5568 23.1836 43.5151 23.1836C43.4214 23.1836 43.3432 23.1836 43.2807 23.1836C43.2287 23.1732 43.1714 23.1784 43.1089 23.1992C43.0776 23.1992 43.0464 23.1992 43.0151 23.1992C42.9839 23.1888 42.9474 23.1836 42.9057 23.1836C42.7912 23.1836 42.7026 23.1836 42.6401 23.1836C42.588 23.1732 42.536 23.168 42.4839 23.168H42.1714C42.1193 23.168 42.0672 23.1732 42.0151 23.1836C41.9735 23.1836 41.9266 23.1836 41.8745 23.1836C41.7807 23.1732 41.6818 23.1628 41.5776 23.1523C41.4839 23.1419 41.3901 23.1367 41.2964 23.1367H41.0464C40.9318 23.1576 40.8589 23.168 40.8276 23.168C40.7964 23.1576 40.7703 23.1576 40.7495 23.168C40.6349 23.2096 40.562 23.2357 40.5307 23.2461C40.4995 23.2565 40.463 23.2669 40.4214 23.2773C40.3797 23.2878 40.3485 23.3034 40.3276 23.3242C40.2964 23.3555 40.2755 23.4284 40.2651 23.543C40.2547 23.6576 40.2495 23.7565 40.2495 23.8398C40.2391 23.9336 40.2339 24.043 40.2339 24.168C40.2443 24.2826 40.2599 24.3919 40.2807 24.4961C40.3224 24.6003 40.3589 24.6523 40.3901 24.6523C40.4214 24.6419 40.4474 24.6367 40.4682 24.6367C40.6037 24.6471 40.687 24.6576 40.7182 24.668C40.7495 24.668 40.7807 24.668 40.812 24.668C40.937 24.668 41.0151 24.668 41.0464 24.668C41.088 24.668 41.1245 24.6732 41.1557 24.6836C41.2182 24.7044 41.2651 24.7148 41.2964 24.7148C41.3276 24.7044 41.3537 24.6992 41.3745 24.6992C41.5203 24.668 41.6297 24.6576 41.7026 24.668C41.7755 24.6784 41.8589 24.6836 41.9526 24.6836C42.0255 24.6836 42.0672 24.6888 42.0776 24.6992C42.088 24.6992 42.1037 24.6992 42.1245 24.6992C42.1766 24.6992 42.2339 24.6888 42.2964 24.668H42.4682C42.5307 24.6576 42.588 24.6471 42.6401 24.6367C42.7026 24.6263 42.7599 24.6367 42.812 24.668C42.8432 24.6471 42.911 24.6367 43.0151 24.6367C43.1401 24.6055 43.2339 24.5951 43.2964 24.6055C43.3693 24.6159 43.4266 24.6107 43.4682 24.5898C43.5516 24.6107 43.6141 24.6211 43.6557 24.6211C43.6766 24.6211 43.7026 24.6159 43.7339 24.6055C43.7651 24.5951 43.7964 24.5898 43.8276 24.5898C43.8693 24.5898 43.9057 24.6003 43.937 24.6211C43.9787 24.6315 44.0203 24.6263 44.062 24.6055C44.0828 24.6263 44.1089 24.6471 44.1401 24.668C44.1818 24.6888 44.2182 24.7201 44.2495 24.7617C44.2703 24.8242 44.2755 24.9232 44.2651 25.0586C44.2651 25.0898 44.2651 25.1263 44.2651 25.168C44.2755 25.1992 44.2755 25.2253 44.2651 25.2461C44.2339 25.3815 44.213 25.4701 44.2026 25.5117C44.1922 25.5534 44.1818 25.6003 44.1714 25.6523C44.1505 25.7565 44.1349 25.819 44.1245 25.8398C44.1141 25.8607 44.1037 25.8815 44.0932 25.9023C44.0516 26.0065 44.0255 26.0846 44.0151 26.1367C44.0047 26.1888 43.9891 26.2409 43.9682 26.293C43.9474 26.3346 43.937 26.3815 43.937 26.4336C43.937 26.4857 43.9318 26.543 43.9214 26.6055C43.8901 26.7201 43.8745 26.8034 43.8745 26.8555C43.8849 26.9076 43.8797 26.9544 43.8589 26.9961C43.8485 27.0273 43.8328 27.0586 43.812 27.0898C43.7912 27.1107 43.7703 27.1367 43.7495 27.168C43.6766 27.3451 43.5985 27.4596 43.5151 27.5117C43.4735 27.5013 43.4318 27.5013 43.3901 27.5117C43.3589 27.5221 43.3172 27.5221 43.2651 27.5117C43.2339 27.5013 43.1974 27.4909 43.1557 27.4805C43.1245 27.4596 43.088 27.4492 43.0464 27.4492C42.8901 27.4596 42.8016 27.4596 42.7807 27.4492C42.6037 27.4284 42.5047 27.418 42.4839 27.418C42.3693 27.3971 42.286 27.3919 42.2339 27.4023C42.1818 27.4128 42.1297 27.4023 42.0776 27.3711C41.9526 27.4128 41.8641 27.4023 41.812 27.3398C41.7599 27.3607 41.687 27.3503 41.5932 27.3086C41.4787 27.2982 41.3901 27.293 41.3276 27.293C41.2651 27.2826 41.2078 27.2721 41.1557 27.2617C41.0724 27.2617 41.0151 27.2565 40.9839 27.2461C40.9526 27.2357 40.911 27.2409 40.8589 27.2617C40.8172 27.2721 40.7755 27.2773 40.7339 27.2773H40.5464C40.4318 27.3398 40.3745 27.3971 40.3745 27.4492C40.3849 27.5013 40.4005 27.5482 40.4214 27.5898C40.4422 27.6732 40.4474 27.7357 40.437 27.7773C40.437 27.819 40.437 27.8659 40.437 27.918C40.437 27.9596 40.4422 28.0013 40.4526 28.043C40.463 28.0846 40.4682 28.1211 40.4682 28.1523C40.4682 28.194 40.463 28.2357 40.4526 28.2773C40.4526 28.3086 40.4526 28.3398 40.4526 28.3711C40.4526 28.4128 40.4526 28.4544 40.4526 28.4961C40.463 28.5273 40.463 28.5638 40.4526 28.6055C40.4526 28.7409 40.4578 28.8503 40.4682 28.9336C40.4787 29.0169 40.4943 29.1003 40.5151 29.1836C40.5255 29.2565 40.5307 29.3294 40.5307 29.4023C40.5307 29.4753 40.536 29.5534 40.5464 29.6367C40.5464 29.6784 40.5464 29.7148 40.5464 29.7461C40.5568 29.7773 40.5672 29.8138 40.5776 29.8555C40.588 29.9909 40.588 30.1263 40.5776 30.2617C40.5672 30.3867 40.5672 30.5065 40.5776 30.6211C40.588 30.7669 40.5985 30.8607 40.6089 30.9023C40.6297 30.9336 40.6453 30.9701 40.6557 31.0117C40.6662 31.0534 40.6714 31.0951 40.6714 31.1367C40.6714 31.168 40.6714 31.1992 40.6714 31.2305V31.4492C40.6714 31.4805 40.6766 31.5169 40.687 31.5586C40.6974 31.5898 40.7026 31.6211 40.7026 31.6523C40.7026 31.7044 40.687 31.7461 40.6557 31.7773C40.6349 31.8086 40.6193 31.8451 40.6089 31.8867C40.4839 31.8763 40.3537 31.8763 40.2182 31.8867C40.0828 31.9076 39.9422 31.9076 39.7964 31.8867C39.7443 31.8867 39.687 31.8815 39.6245 31.8711C39.562 31.8607 39.4943 31.8555 39.4214 31.8555C39.213 31.8346 39.0099 31.8346 38.812 31.8555C38.687 31.8555 38.6193 31.8555 38.6089 31.8555C38.5985 31.8659 38.5828 31.8711 38.562 31.8711C38.5412 31.8711 38.4995 31.8659 38.437 31.8555C38.3849 31.8555 38.3328 31.8607 38.2807 31.8711C38.1557 31.8815 38.0776 31.8815 38.0464 31.8711C38.0255 31.8711 37.9891 31.8763 37.937 31.8867C37.8224 31.8867 37.6922 31.8867 37.5464 31.8867C37.411 31.8971 37.2755 31.8971 37.1401 31.8867C37.0568 31.8763 36.9995 31.8763 36.9682 31.8867C36.937 31.8971 36.9005 31.9023 36.8589 31.9023C36.8068 31.9023 36.7599 31.8867 36.7182 31.8555C36.687 31.8346 36.661 31.8138 36.6401 31.793C36.588 31.6888 36.562 31.6367 36.562 31.6367C36.5307 31.4596 36.5151 31.3138 36.5151 31.1992C36.5151 31.1784 36.5203 31.1523 36.5307 31.1211C36.5412 31.0898 36.5464 31.0586 36.5464 31.0273C36.5255 30.8086 36.5255 30.6211 36.5464 30.4648C36.5464 30.3919 36.5568 30.3034 36.5776 30.1992C36.588 30.0742 36.588 30.0013 36.5776 29.9805C36.5776 29.9492 36.5776 29.9232 36.5776 29.9023C36.5776 29.8503 36.5828 29.8138 36.5932 29.793C36.6141 29.7721 36.6193 29.7357 36.6089 29.6836C36.6297 29.5898 36.6401 29.5221 36.6401 29.4805C36.6401 29.4388 36.6453 29.4023 36.6557 29.3711L36.7026 29.1836C36.7235 29.1003 36.7287 29.0169 36.7182 28.9336C36.7182 28.8503 36.7182 28.7617 36.7182 28.668C36.7182 28.6263 36.7287 28.5638 36.7495 28.4805C36.7495 28.4388 36.7443 28.4023 36.7339 28.3711C36.7339 28.3398 36.7391 28.3086 36.7495 28.2773C36.7703 28.1836 36.7807 28.1263 36.7807 28.1055C36.7703 28.0117 36.7651 27.9596 36.7651 27.9492C36.7755 27.9388 36.7807 27.9232 36.7807 27.9023L36.7964 27.5742C36.7964 27.4388 36.8016 27.3451 36.812 27.293C36.8224 27.2305 36.8276 27.1732 36.8276 27.1211C36.8276 27.1003 36.8276 27.069 36.8276 27.0273C36.8276 26.9857 36.8224 26.9544 36.812 26.9336C36.812 26.8711 36.8068 26.8242 36.7964 26.793C36.7964 26.7513 36.7964 26.7096 36.7964 26.668C36.7964 26.5951 36.7912 26.5482 36.7807 26.5273C36.7807 26.4961 36.7807 26.4648 36.7807 26.4336C36.7807 26.4023 36.7807 26.3711 36.7807 26.3398C36.7912 26.2982 36.786 26.2617 36.7651 26.2305C36.7755 26.1784 36.7807 26.1263 36.7807 26.0742C36.7912 26.0117 36.7964 25.9544 36.7964 25.9023C36.7964 25.8503 36.786 25.7982 36.7651 25.7461C36.7547 25.694 36.7495 25.6419 36.7495 25.5898C36.7599 25.5169 36.7599 25.4701 36.7495 25.4492C36.7495 25.4284 36.7495 25.4023 36.7495 25.3711C36.7391 25.319 36.7339 25.2669 36.7339 25.2148C36.7339 25.1628 36.7339 25.1107 36.7339 25.0586V24.5898C36.7339 24.5273 36.7287 24.4648 36.7182 24.4023C36.7182 24.3398 36.7182 24.2721 36.7182 24.1992C36.7287 24.1159 36.7287 24.0638 36.7182 24.043C36.7182 24.0117 36.7182 23.9857 36.7182 23.9648C36.7182 23.9128 36.7182 23.8711 36.7182 23.8398C36.7182 23.8086 36.713 23.7669 36.7026 23.7148C36.7235 23.6315 36.7235 23.543 36.7026 23.4492C36.6818 23.3555 36.6818 23.2826 36.7026 23.2305L36.687 23.0273C36.6974 23.0065 36.7026 22.9596 36.7026 22.8867C36.7026 22.8138 36.6974 22.7513 36.687 22.6992V22.4648C36.6662 22.3607 36.6557 22.2721 36.6557 22.1992C36.6453 22.0742 36.6297 21.9909 36.6089 21.9492C36.588 21.8971 36.5828 21.8346 36.5932 21.7617C36.5932 21.6888 36.588 21.6419 36.5776 21.6211C36.5672 21.5898 36.562 21.5586 36.562 21.5273C36.5724 21.4336 36.5724 21.3815 36.562 21.3711C36.562 21.3503 36.562 21.3294 36.562 21.3086C36.5516 21.2044 36.5412 21.1367 36.5307 21.1055C36.5307 21.0742 36.5307 21.043 36.5307 21.0117C36.5516 20.8867 36.5568 20.8138 36.5464 20.793C36.5464 20.7617 36.5464 20.7305 36.5464 20.6992C36.588 20.6055 36.6089 20.5534 36.6089 20.543C36.6193 20.5221 36.6297 20.5065 36.6401 20.4961C36.7651 20.4128 36.8641 20.3711 36.937 20.3711C37.0724 20.3398 37.1557 20.3242 37.187 20.3242C37.2287 20.3242 37.2703 20.319 37.312 20.3086C37.3432 20.3086 37.3745 20.3086 37.4057 20.3086C37.437 20.2982 37.4735 20.293 37.5151 20.293C37.5568 20.2826 37.5932 20.2773 37.6245 20.2773C37.6662 20.2773 37.7026 20.2773 37.7339 20.2773C37.838 20.2565 37.9057 20.2461 37.937 20.2461C38.1037 20.2878 38.2182 20.3086 38.2807 20.3086C38.3432 20.2982 38.411 20.293 38.4839 20.293C38.5776 20.2721 38.6714 20.2773 38.7651 20.3086C38.8276 20.319 38.8901 20.3346 38.9526 20.3555C39.0151 20.3659 39.0776 20.3711 39.1401 20.3711C39.2026 20.3607 39.2599 20.3503 39.312 20.3398C39.3745 20.3294 39.437 20.3242 39.4995 20.3242L39.7964 20.3555C39.963 20.3451 40.0672 20.3398 40.1089 20.3398C40.1714 20.3294 40.2287 20.3242 40.2807 20.3242C40.3432 20.3242 40.4057 20.319 40.4682 20.3086C40.6245 20.2878 40.7339 20.2826 40.7964 20.293C40.8589 20.3034 40.9266 20.3086 40.9995 20.3086C41.0516 20.3086 41.1089 20.3086 41.1714 20.3086C41.2339 20.2982 41.2912 20.293 41.3432 20.293C41.3849 20.293 41.4214 20.2982 41.4526 20.3086C41.4943 20.3086 41.5412 20.3086 41.5932 20.3086C41.6662 20.319 41.7339 20.3242 41.7964 20.3242C41.8693 20.3138 41.9318 20.3034 41.9839 20.293L42.4057 20.2461C42.4578 20.2357 42.5047 20.2357 42.5464 20.2461C42.588 20.2461 42.6349 20.2461 42.687 20.2461C42.8224 20.2357 42.9526 20.2305 43.0776 20.2305C43.2026 20.2201 43.3224 20.2253 43.437 20.2461C43.5307 20.2461 43.588 20.2461 43.6089 20.2461C43.6401 20.2357 43.6662 20.2357 43.687 20.2461C43.7599 20.2461 43.812 20.2513 43.8432 20.2617C43.8849 20.2617 43.9318 20.2617 43.9839 20.2617C44.0464 20.2617 44.088 20.2617 44.1089 20.2617C44.1297 20.2513 44.1505 20.2461 44.1714 20.2461C44.286 20.2565 44.3432 20.2565 44.3432 20.2461C44.3537 20.2357 44.3693 20.2305 44.3901 20.2305C44.5047 20.2201 44.562 20.2148 44.562 20.2148C44.6766 20.194 44.7495 20.194 44.7807 20.2148C44.812 20.2253 44.8485 20.2357 44.8901 20.2461C44.9318 20.2461 44.9682 20.2461 44.9995 20.2461C45.0412 20.2357 45.0828 20.2357 45.1245 20.2461C45.1974 20.2565 45.2391 20.2721 45.2495 20.293C45.2599 20.3034 45.2755 20.3086 45.2964 20.3086ZM50.4839 20.5117C50.4735 20.543 50.463 20.5742 50.4526 20.6055C50.4526 20.6263 50.4526 20.6523 50.4526 20.6836C50.4526 20.694 50.4526 20.7357 50.4526 20.8086C50.463 20.8815 50.4682 20.9388 50.4682 20.9805L50.4839 21.2461V21.5117C50.4839 21.6263 50.4839 21.6992 50.4839 21.7305C50.4943 21.7513 50.4995 21.7721 50.4995 21.793C50.4682 21.9284 50.4526 22.0221 50.4526 22.0742C50.4526 22.1263 50.4526 22.1784 50.4526 22.2305C50.4422 22.3242 50.437 22.4232 50.437 22.5273C50.437 22.6315 50.4318 22.7253 50.4214 22.8086C50.4214 22.8294 50.4162 22.8659 50.4057 22.918C50.4057 22.9596 50.4057 22.9961 50.4057 23.0273C50.4057 23.1003 50.4005 23.1576 50.3901 23.1992C50.3901 23.2305 50.3901 23.2721 50.3901 23.3242C50.3693 23.418 50.3589 23.4857 50.3589 23.5273C50.3589 23.5482 50.3589 23.5794 50.3589 23.6211C50.3693 23.6523 50.3693 23.6836 50.3589 23.7148C50.338 23.8607 50.3276 23.944 50.3276 23.9648V24.2617C50.3276 24.3138 50.3328 24.3659 50.3432 24.418C50.3537 24.4596 50.3589 24.5065 50.3589 24.5586C50.3589 24.6315 50.3537 24.7044 50.3432 24.7773C50.3432 24.8398 50.3432 24.9023 50.3432 24.9648C50.3328 25.0586 50.3328 25.1419 50.3432 25.2148C50.3537 25.2773 50.3589 25.3346 50.3589 25.3867C50.3693 25.4388 50.3693 25.4857 50.3589 25.5273C50.3589 25.5586 50.3589 25.6003 50.3589 25.6523C50.3693 25.7148 50.3693 25.793 50.3589 25.8867C50.3589 25.9701 50.3641 26.0638 50.3745 26.168C50.3953 26.3034 50.4005 26.3919 50.3901 26.4336C50.3901 26.4648 50.3901 26.5013 50.3901 26.543V26.8086C50.3693 26.8815 50.3589 26.9284 50.3589 26.9492C50.3693 26.9701 50.3745 26.9909 50.3745 27.0117V27.6992C50.3745 27.8034 50.3745 27.8815 50.3745 27.9336C50.3849 27.9857 50.3797 28.043 50.3589 28.1055C50.3901 28.2096 50.4005 28.2773 50.3901 28.3086C50.3901 28.3294 50.3953 28.3503 50.4057 28.3711C50.4057 28.4232 50.4057 28.4753 50.4057 28.5273C50.4162 28.569 50.4214 28.6159 50.4214 28.668C50.4318 28.7513 50.4318 28.8398 50.4214 28.9336C50.4214 29.0169 50.4266 29.0846 50.437 29.1367C50.4474 29.2409 50.4474 29.3034 50.437 29.3242C50.437 29.3346 50.437 29.3503 50.437 29.3711C50.437 29.4648 50.437 29.5326 50.437 29.5742C50.4474 29.6055 50.4526 29.6315 50.4526 29.6523C50.463 29.7253 50.4682 29.793 50.4682 29.8555C50.4787 29.918 50.4943 29.9805 50.5151 30.043C50.5255 30.1367 50.5307 30.2253 50.5307 30.3086C50.5412 30.3919 50.5568 30.4805 50.5776 30.5742C50.5776 30.6367 50.588 30.6992 50.6089 30.7617C50.6297 30.8242 50.6349 30.8659 50.6245 30.8867C50.6245 30.8971 50.6245 30.9128 50.6245 30.9336C50.6245 30.9753 50.6245 31.0065 50.6245 31.0273C50.6349 31.0482 50.6297 31.0794 50.6089 31.1211C50.588 31.2253 50.5776 31.2982 50.5776 31.3398C50.5776 31.3711 50.5724 31.4076 50.562 31.4492C50.5203 31.5221 50.4891 31.5638 50.4682 31.5742C50.4578 31.5742 50.4474 31.5846 50.437 31.6055C50.3849 31.668 50.3485 31.7044 50.3276 31.7148C50.3172 31.7148 50.3068 31.7253 50.2964 31.7461L50.1401 31.8242C50.088 31.8555 50.036 31.8659 49.9839 31.8555C49.9422 31.8555 49.8953 31.8607 49.8432 31.8711L49.6089 31.8867C49.5151 31.8763 49.4578 31.8711 49.437 31.8711C49.4162 31.8815 49.3953 31.8867 49.3745 31.8867C49.3432 31.8867 49.312 31.8815 49.2807 31.8711C49.2495 31.8711 49.2235 31.8711 49.2026 31.8711H48.9214C48.8693 31.8711 48.8172 31.8659 48.7651 31.8555C48.7235 31.8451 48.6766 31.8555 48.6245 31.8867C48.5516 31.8763 48.4787 31.8815 48.4057 31.9023C48.3328 31.9232 48.2599 31.9388 48.187 31.9492C48.1141 31.9388 48.0464 31.9388 47.9839 31.9492C47.9318 31.9596 47.8849 31.9648 47.8432 31.9648C47.7599 31.9857 47.713 31.9909 47.7026 31.9805C47.7026 31.9805 47.6922 31.9805 47.6714 31.9805C47.6505 31.9701 47.6193 31.9648 47.5776 31.9648C47.5464 31.9753 47.5151 31.9805 47.4839 31.9805C47.4422 31.9805 47.3953 31.9753 47.3432 31.9648C47.3016 31.9544 47.2599 31.9492 47.2182 31.9492C47.1141 31.8867 47.062 31.8555 47.062 31.8555C46.9474 31.7721 46.8797 31.7253 46.8589 31.7148C46.838 31.7044 46.8172 31.694 46.7964 31.6836C46.7755 31.6315 46.7495 31.5951 46.7182 31.5742C46.687 31.543 46.661 31.5065 46.6401 31.4648C46.6297 31.444 46.6193 31.4076 46.6089 31.3555C46.6089 31.3034 46.6089 31.2669 46.6089 31.2461C46.6089 31.1003 46.6089 30.9909 46.6089 30.918C46.6089 30.8346 46.6193 30.7513 46.6401 30.668C46.6505 30.5742 46.6766 30.4701 46.7182 30.3555C46.7495 30.2617 46.7651 30.1888 46.7651 30.1367C46.7755 30.1055 46.786 30.069 46.7964 30.0273C46.8068 29.9857 46.812 29.9492 46.812 29.918C46.8224 29.8867 46.8224 29.8555 46.812 29.8242C46.812 29.793 46.812 29.7669 46.812 29.7461C46.8432 29.5794 46.8537 29.4596 46.8432 29.3867C46.8432 29.3138 46.8432 29.2461 46.8432 29.1836V28.6055V28.3086C46.8432 28.1523 46.8432 28.0169 46.8432 27.9023C46.8537 27.7773 46.8485 27.6523 46.8276 27.5273C46.8068 27.444 46.7964 27.3919 46.7964 27.3711C46.8068 27.3503 46.812 27.3294 46.812 27.3086C46.812 27.2461 46.812 27.1888 46.812 27.1367C46.8224 27.0742 46.8224 27.0117 46.812 26.9492C46.8016 26.793 46.786 26.6419 46.7651 26.4961C46.7547 26.3398 46.7495 26.1836 46.7495 26.0273V25.8398C46.7391 25.7773 46.7287 25.7148 46.7182 25.6523C46.7182 25.5898 46.7182 25.5221 46.7182 25.4492V25.1992C46.7078 25.1263 46.7026 25.0586 46.7026 24.9961C46.713 24.8711 46.713 24.7878 46.7026 24.7461C46.6922 24.7044 46.687 24.668 46.687 24.6367C46.6662 24.5742 46.6505 24.5117 46.6401 24.4492C46.6401 24.3867 46.6349 24.319 46.6245 24.2461C46.6037 24.1107 46.588 24.0273 46.5776 23.9961C46.5776 23.9648 46.5776 23.9232 46.5776 23.8711C46.588 23.8398 46.588 23.7982 46.5776 23.7461C46.5776 23.694 46.5776 23.6419 46.5776 23.5898V23.3867C46.5672 23.2826 46.562 23.2305 46.562 23.2305C46.5724 23.2201 46.5776 23.2096 46.5776 23.1992C46.5672 23.0742 46.562 22.9492 46.562 22.8242C46.5724 22.6888 46.5724 22.5586 46.562 22.4336C46.5516 22.2982 46.5412 22.1888 46.5307 22.1055C46.5203 22.0221 46.5099 21.9388 46.4995 21.8555C46.4891 21.8034 46.4787 21.7565 46.4682 21.7148C46.4682 21.6628 46.4682 21.6107 46.4682 21.5586C46.4578 21.5273 46.4526 21.5013 46.4526 21.4805C46.4526 21.4492 46.4474 21.4128 46.437 21.3711C46.4266 21.3086 46.4162 21.2513 46.4057 21.1992C46.3953 21.1367 46.3901 21.0794 46.3901 21.0273C46.411 20.9544 46.4162 20.8815 46.4057 20.8086C46.4057 20.7357 46.411 20.6888 46.4214 20.668C46.4214 20.6263 46.4266 20.5951 46.437 20.5742C46.4578 20.543 46.4682 20.5065 46.4682 20.4648C46.5099 20.4023 46.5516 20.3503 46.5932 20.3086C46.7078 20.2357 46.7755 20.1992 46.7964 20.1992C46.8276 20.1992 46.8589 20.2044 46.8901 20.2148C46.9318 20.2253 46.9682 20.2305 46.9995 20.2305C47.0203 20.2305 47.0464 20.2253 47.0776 20.2148C47.1089 20.2044 47.1401 20.1992 47.1714 20.1992C47.2026 20.2201 47.2339 20.2305 47.2651 20.2305C47.3068 20.2201 47.3432 20.2148 47.3745 20.2148C47.4995 20.1836 47.5776 20.1732 47.6089 20.1836C47.6505 20.194 47.687 20.194 47.7182 20.1836H47.9839C48.0255 20.194 48.062 20.1992 48.0932 20.1992C48.1349 20.1888 48.1714 20.1836 48.2026 20.1836H48.7182C48.8328 20.1628 48.9057 20.1523 48.937 20.1523C48.9891 20.1419 49.0412 20.1367 49.0932 20.1367C49.1557 20.1263 49.213 20.1159 49.2651 20.1055C49.3172 20.0951 49.3797 20.0951 49.4526 20.1055C49.536 20.1055 49.6037 20.1055 49.6557 20.1055C49.7912 20.1263 49.8797 20.1367 49.9214 20.1367C50.0672 20.1992 50.1557 20.2305 50.187 20.2305C50.2287 20.2305 50.2599 20.2357 50.2807 20.2461C50.3016 20.2565 50.3224 20.2773 50.3432 20.3086C50.3641 20.3294 50.3849 20.3503 50.4057 20.3711L50.4839 20.5117ZM58.312 24.4492C58.3224 24.5221 58.3224 24.6055 58.312 24.6992C58.2912 24.7826 58.2807 24.8398 58.2807 24.8711C58.2912 24.8919 58.2964 24.9128 58.2964 24.9336C58.2964 24.9961 58.2964 25.0638 58.2964 25.1367C58.3068 25.1992 58.3172 25.2617 58.3276 25.3242C58.3276 25.4076 58.3224 25.4909 58.312 25.5742C58.3016 25.6471 58.2912 25.7253 58.2807 25.8086C58.2912 25.9128 58.2912 25.9753 58.2807 25.9961C58.2807 26.0169 58.2807 26.043 58.2807 26.0742C58.3016 26.2096 58.3068 26.319 58.2964 26.4023C58.2964 26.4857 58.2964 26.569 58.2964 26.6523C58.2964 26.7565 58.3016 26.819 58.312 26.8398C58.3224 26.8607 58.3276 26.8815 58.3276 26.9023V27.2461C58.3276 27.319 58.3276 27.3607 58.3276 27.3711C58.338 27.3815 58.3432 27.3971 58.3432 27.418C58.3432 27.5013 58.338 27.5794 58.3276 27.6523C58.3276 27.7253 58.338 27.7773 58.3589 27.8086C58.3797 27.8503 58.3849 27.918 58.3745 28.0117C58.3641 28.1055 58.3537 28.1836 58.3432 28.2461C58.3328 28.3607 58.3328 28.4701 58.3432 28.5742C58.3537 28.668 58.3693 28.7669 58.3901 28.8711C58.411 29.0273 58.4214 29.1211 58.4214 29.1523C58.411 29.194 58.4057 29.2305 58.4057 29.2617C58.4162 29.293 58.4214 29.3242 58.4214 29.3555C58.4214 29.4076 58.4214 29.4492 58.4214 29.4805C58.4318 29.5117 58.4422 29.5482 58.4526 29.5898C58.4735 29.6732 58.4891 29.7409 58.4995 29.793C58.4995 29.8451 58.4943 29.8919 58.4839 29.9336C58.4839 29.9753 58.4839 30.0221 58.4839 30.0742C58.4839 30.1263 58.4891 30.1732 58.4995 30.2148C58.5099 30.2461 58.5203 30.2826 58.5307 30.3242C58.5412 30.3867 58.5412 30.4544 58.5307 30.5273C58.5307 30.5898 58.536 30.6628 58.5464 30.7461C58.5568 30.7773 58.562 30.8138 58.562 30.8555C58.562 30.8971 58.5724 30.944 58.5932 30.9961C58.6141 31.0586 58.6245 31.1055 58.6245 31.1367C58.6245 31.168 58.6297 31.1992 58.6401 31.2305C58.6818 31.418 58.6922 31.5638 58.6714 31.668C58.6089 31.7826 58.5776 31.8659 58.5776 31.918C58.4943 31.9596 58.4318 31.9805 58.3901 31.9805C58.3485 31.9805 58.312 31.9805 58.2807 31.9805C58.2287 31.9909 58.1818 31.9909 58.1401 31.9805C58.0985 31.9701 58.0516 31.9648 57.9995 31.9648C57.9266 31.9544 57.8485 31.9492 57.7651 31.9492C57.6922 31.9492 57.6193 31.9492 57.5464 31.9492C57.5255 31.9388 57.4943 31.9336 57.4526 31.9336C57.411 31.9336 57.3849 31.9336 57.3745 31.9336C57.2912 31.944 57.2443 31.944 57.2339 31.9336C57.2235 31.9336 57.2078 31.9336 57.187 31.9336C57.1245 31.9336 57.0568 31.9388 56.9839 31.9492C56.911 31.9596 56.8432 31.9701 56.7807 31.9805C56.7182 31.9805 56.6557 31.9753 56.5932 31.9648C56.5307 31.9648 56.4682 31.9701 56.4057 31.9805C56.3432 31.9805 56.2807 31.9857 56.2182 31.9961C56.1662 32.0065 56.1193 32.0117 56.0776 32.0117C56.0047 32.0117 55.9318 32.0117 55.8589 32.0117C55.7964 32.0117 55.7235 32.0221 55.6401 32.043C55.6089 32.043 55.5776 32.0482 55.5464 32.0586C55.5151 32.069 55.4839 32.0742 55.4526 32.0742C55.411 32.0742 55.3693 32.0742 55.3276 32.0742C55.286 32.0742 55.2391 32.0846 55.187 32.1055L55.0151 32.1211C54.8901 32.1211 54.8224 32.1159 54.812 32.1055C54.8016 32.0951 54.786 32.0898 54.7651 32.0898L54.5932 32.043C54.4891 31.9701 54.437 31.9232 54.437 31.9023C54.437 31.8919 54.4318 31.8815 54.4214 31.8711C54.4005 31.8086 54.3953 31.7617 54.4057 31.7305C54.4162 31.7096 54.4266 31.6888 54.437 31.668C54.437 31.5742 54.437 31.5273 54.437 31.5273C54.4474 31.5169 54.4526 31.5013 54.4526 31.4805C54.4422 31.4284 54.437 31.3919 54.437 31.3711C54.4474 31.3503 54.4526 31.3294 54.4526 31.3086L54.4682 31.0586C54.4787 31.0273 54.4839 30.9857 54.4839 30.9336C54.4839 30.8815 54.4891 30.8398 54.4995 30.8086C54.5203 30.7044 54.5255 30.6471 54.5151 30.6367C54.5151 30.6263 54.5151 30.6107 54.5151 30.5898C54.5255 30.4857 54.5255 30.4336 54.5151 30.4336C54.5151 30.4232 54.5151 30.4076 54.5151 30.3867C54.536 30.3138 54.5516 30.2617 54.562 30.2305C54.5724 30.1888 54.5776 30.1523 54.5776 30.1211C54.5776 30.0065 54.588 29.9284 54.6089 29.8867C54.5985 29.8555 54.5985 29.819 54.6089 29.7773C54.6193 29.7357 54.6245 29.7044 54.6245 29.6836C54.6245 29.5586 54.6245 29.4753 54.6245 29.4336C54.6245 29.3919 54.6245 29.3607 54.6245 29.3398C54.6349 29.2878 54.6401 29.2253 54.6401 29.1523C54.6401 29.0794 54.6401 29.0169 54.6401 28.9648C54.6401 28.7669 54.6453 28.6055 54.6557 28.4805C54.6662 28.3555 54.6714 28.2357 54.6714 28.1211C54.6714 28.069 54.6714 28.0273 54.6714 27.9961C54.6714 27.9544 54.6662 27.9076 54.6557 27.8555V27.418C54.6662 27.3867 54.6662 27.3555 54.6557 27.3242C54.6557 27.293 54.6662 27.2669 54.687 27.2461L54.6714 26.6836C54.6818 26.6315 54.6818 26.5846 54.6714 26.543C54.6714 26.4909 54.6766 26.444 54.687 26.4023C54.687 26.2982 54.6922 26.2305 54.7026 26.1992C54.713 26.1576 54.7182 26.1159 54.7182 26.0742C54.7182 26.0326 54.713 25.9961 54.7026 25.9648C54.6922 25.9336 54.687 25.9023 54.687 25.8711L54.7182 25.5273C54.6974 25.3815 54.6922 25.293 54.7026 25.2617C54.713 25.2201 54.7182 25.1784 54.7182 25.1367C54.7078 24.9492 54.7026 24.8034 54.7026 24.6992C54.713 24.5846 54.713 24.4753 54.7026 24.3711C54.6818 24.2044 54.6662 24.1055 54.6557 24.0742C54.6349 23.918 54.6245 23.8294 54.6245 23.8086C54.6349 23.7773 54.6297 23.7357 54.6089 23.6836C54.5776 23.6211 54.5516 23.5794 54.5307 23.5586C54.5203 23.5378 54.5099 23.5169 54.4995 23.4961C54.4474 23.5169 54.3901 23.5273 54.3276 23.5273C54.2755 23.5169 54.2235 23.5169 54.1714 23.5273C54.1089 23.5273 54.0412 23.5326 53.9682 23.543C53.9057 23.543 53.8485 23.543 53.7964 23.543C53.7235 23.543 53.6557 23.543 53.5932 23.543C53.5412 23.5326 53.4839 23.5378 53.4214 23.5586C53.3901 23.5586 53.3328 23.569 53.2495 23.5898C53.1453 23.6211 53.0568 23.6367 52.9839 23.6367C52.9422 23.6367 52.9005 23.6419 52.8589 23.6523C52.8276 23.6628 52.8016 23.6732 52.7807 23.6836C52.6766 23.7044 52.6141 23.7148 52.5932 23.7148L52.3589 23.7461C52.213 23.7878 52.1193 23.8138 52.0776 23.8242C52.036 23.8346 51.9995 23.8451 51.9682 23.8555C51.9474 23.8659 51.9162 23.8711 51.8745 23.8711C51.7807 23.8503 51.7182 23.8398 51.687 23.8398C51.6557 23.8294 51.6297 23.819 51.6089 23.8086C51.588 23.7878 51.562 23.7721 51.5307 23.7617C51.5099 23.7409 51.4891 23.7201 51.4682 23.6992C51.4162 23.5846 51.3849 23.5221 51.3745 23.5117C51.3745 23.4909 51.3745 23.4753 51.3745 23.4648C51.4057 23.3503 51.4214 23.2721 51.4214 23.2305C51.4318 23.1888 51.4422 23.1419 51.4526 23.0898C51.4526 22.9961 51.4682 22.918 51.4995 22.8555C51.5307 22.7513 51.5464 22.668 51.5464 22.6055C51.5672 22.5534 51.5828 22.5013 51.5932 22.4492C51.6037 22.3867 51.6141 22.3242 51.6245 22.2617C51.6349 22.2096 51.6401 22.1628 51.6401 22.1211C51.6401 22.0794 51.6453 22.0326 51.6557 21.9805C51.7078 21.8763 51.7339 21.7982 51.7339 21.7461C51.7547 21.6836 51.7599 21.6419 51.7495 21.6211C51.7495 21.6003 51.7547 21.5742 51.7651 21.543C51.7755 21.4805 51.786 21.4336 51.7964 21.4023C51.8068 21.3607 51.812 21.3294 51.812 21.3086L51.8276 21.0273L51.8589 20.7773C51.8797 20.7461 51.8849 20.7201 51.8745 20.6992C51.8745 20.6784 51.8745 20.6419 51.8745 20.5898C51.937 20.4961 51.9682 20.4492 51.9682 20.4492C51.9787 20.4388 51.9839 20.4284 51.9839 20.418C52.0672 20.3242 52.1297 20.2773 52.1714 20.2773C52.2235 20.2669 52.2703 20.2513 52.312 20.2305C52.3328 20.2201 52.3641 20.2201 52.4057 20.2305C52.4474 20.2305 52.4891 20.2253 52.5307 20.2148C52.6037 20.194 52.6557 20.1888 52.687 20.1992C52.7182 20.2096 52.7599 20.2148 52.812 20.2148C52.8641 20.2253 52.911 20.2357 52.9526 20.2461C53.0047 20.2461 53.0568 20.2461 53.1089 20.2461C53.2339 20.2357 53.3068 20.2357 53.3276 20.2461C53.3589 20.2565 53.3901 20.2617 53.4214 20.2617C53.5672 20.2617 53.6557 20.2669 53.687 20.2773C53.7287 20.2878 53.7651 20.2982 53.7964 20.3086C53.838 20.3086 53.8797 20.3138 53.9214 20.3242C53.963 20.3242 54.0047 20.319 54.0464 20.3086C54.0985 20.2878 54.1453 20.2826 54.187 20.293C54.2391 20.3034 54.286 20.3086 54.3276 20.3086C54.3693 20.3086 54.4057 20.3086 54.437 20.3086C54.4682 20.2982 54.4995 20.293 54.5307 20.293L54.7651 20.3242C54.8797 20.3138 54.9474 20.3086 54.9682 20.3086C55.0516 20.319 55.0985 20.3242 55.1089 20.3242C55.1297 20.3138 55.1505 20.3086 55.1714 20.3086C55.286 20.319 55.3589 20.3294 55.3901 20.3398C55.411 20.3294 55.4422 20.3242 55.4839 20.3242C55.536 20.3242 55.5828 20.3294 55.6245 20.3398C55.7703 20.3398 55.8953 20.3398 55.9995 20.3398C56.0932 20.3503 56.1453 20.3555 56.1557 20.3555C56.1662 20.3451 56.1818 20.3398 56.2026 20.3398H56.437H56.6089C56.7026 20.3398 56.7599 20.3346 56.7807 20.3242C56.8016 20.3138 56.8224 20.3086 56.8432 20.3086C56.8849 20.2982 56.9214 20.293 56.9526 20.293C56.9839 20.293 57.0203 20.2878 57.062 20.2773C57.1557 20.2669 57.2078 20.2617 57.2182 20.2617C57.2287 20.2513 57.2391 20.2461 57.2495 20.2461C57.3328 20.2357 57.3797 20.2357 57.3901 20.2461C57.411 20.2461 57.4318 20.2409 57.4526 20.2305C57.5672 20.2305 57.6245 20.2305 57.6245 20.2305C57.6245 20.2201 57.6297 20.2148 57.6401 20.2148C57.7235 20.2044 57.7703 20.2044 57.7807 20.2148C57.7912 20.2148 57.8068 20.2148 57.8276 20.2148C57.9422 20.2148 58.0047 20.2201 58.0151 20.2305C58.0255 20.2305 58.0412 20.2305 58.062 20.2305C58.1037 20.2305 58.1401 20.2253 58.1714 20.2148C58.213 20.2044 58.2547 20.1992 58.2964 20.1992C58.3276 20.1888 58.3641 20.1888 58.4057 20.1992C58.4578 20.2096 58.4891 20.2096 58.4995 20.1992C58.6141 20.1888 58.6766 20.1888 58.687 20.1992C58.6974 20.1992 58.7078 20.1992 58.7182 20.1992C58.8745 20.1784 58.9735 20.1784 59.0151 20.1992C59.0672 20.1784 59.1193 20.168 59.1714 20.168C59.2339 20.168 59.2912 20.1628 59.3432 20.1523C59.4474 20.1523 59.5099 20.1523 59.5307 20.1523C59.5516 20.1419 59.5776 20.1367 59.6089 20.1367C59.7755 20.1055 59.8953 20.0951 59.9682 20.1055C60.0412 20.1055 60.1141 20.1003 60.187 20.0898C60.3432 20.0482 60.4422 20.0326 60.4839 20.043C60.536 20.043 60.5828 20.043 60.6245 20.043C60.7287 20.0221 60.7912 20.0169 60.812 20.0273C60.8328 20.0378 60.8537 20.043 60.8745 20.043C60.9682 20.0326 61.0307 20.0273 61.062 20.0273C61.0932 20.0169 61.1193 20.0117 61.1401 20.0117C61.1714 20.0013 61.2026 19.9961 61.2339 19.9961C61.2651 19.9961 61.2964 19.9857 61.3276 19.9648C61.3693 19.9857 61.4005 20.0065 61.4214 20.0273C61.4526 20.0378 61.4787 20.069 61.4995 20.1211C61.5724 20.2253 61.6141 20.3034 61.6245 20.3555C61.6349 20.4076 61.6349 20.4805 61.6245 20.5742C61.6141 20.6263 61.6037 20.6888 61.5932 20.7617C61.5932 20.8346 61.5828 20.9076 61.562 20.9805C61.5412 21.0534 61.5307 21.1003 61.5307 21.1211C61.5412 21.1315 61.5412 21.1471 61.5307 21.168C61.4995 21.3242 61.4787 21.4388 61.4682 21.5117C61.4578 21.5742 61.4474 21.6419 61.437 21.7148C61.3953 21.8398 61.3693 21.9284 61.3589 21.9805C61.3589 22.0326 61.3537 22.0846 61.3432 22.1367C61.3328 22.2617 61.3172 22.3451 61.2964 22.3867C61.286 22.4388 61.2807 22.4857 61.2807 22.5273C61.2912 22.569 61.2912 22.6159 61.2807 22.668C61.2599 22.7721 61.2443 22.8398 61.2339 22.8711C61.2026 22.9336 61.187 22.9805 61.187 23.0117C61.1974 23.043 61.1974 23.0742 61.187 23.1055C61.1557 23.1992 61.1349 23.2669 61.1245 23.3086C61.1141 23.3503 61.0985 23.3971 61.0776 23.4492C61.088 23.5117 61.0776 23.5586 61.0464 23.5898C61.0151 23.6211 60.9891 23.6628 60.9682 23.7148C60.937 23.7253 60.9057 23.7409 60.8745 23.7617C60.8537 23.7721 60.8328 23.7878 60.812 23.8086C60.7495 23.8398 60.6922 23.8398 60.6401 23.8086C60.5464 23.7773 60.4839 23.7565 60.4526 23.7461C60.4214 23.7253 60.3849 23.7096 60.3432 23.6992C60.2599 23.6992 60.213 23.694 60.2026 23.6836C60.2026 23.6732 60.1922 23.668 60.1714 23.668C60.1401 23.6576 60.0828 23.6523 59.9995 23.6523C59.8745 23.6315 59.8016 23.6263 59.7807 23.6367C59.7599 23.6367 59.7391 23.6367 59.7182 23.6367C59.6037 23.6159 59.536 23.6107 59.5151 23.6211C59.5047 23.6315 59.4891 23.6315 59.4682 23.6211C59.3849 23.6003 59.3172 23.5898 59.2651 23.5898C59.213 23.5794 59.161 23.569 59.1089 23.5586H58.8276C58.7443 23.5482 58.6662 23.5482 58.5932 23.5586C58.5099 23.569 58.4578 23.6003 58.437 23.6523C58.4057 23.7357 58.3901 23.819 58.3901 23.9023L58.3432 24.2773C58.3432 24.3607 58.3328 24.418 58.312 24.4492Z" fill="#177BEA"/>
<defs>
<linearGradient id="paint0_linear_226_380" x1="28.144" y1="34.052" x2="28.144" y2="54.5339" gradientUnits="userSpaceOnUse">
<stop stop-color="#177BEA"/>
<stop offset="1" stop-color="#536CE3"/>
</linearGradient>
<linearGradient id="paint1_linear_226_380" x1="47.8851" y1="5.9895" x2="47.8851" y2="45.4716" gradientUnits="userSpaceOnUse">
<stop stop-color="#177BEA"/>
<stop offset="1" stop-color="#536CE3"/>
</linearGradient>
</defs>
</svg>
