<svg width="122" height="95" viewBox="0 0 122 95" fill="none" xmlns="http://www.w3.org/2000/svg">
<path d="M90.7452 90.0064C85.5771 92.1204 76.3189 94.6058 61.359 94.6058C46.3991 94.6058 37.1409 92.1203 31.9728 90.0064C28.537 88.6011 26.456 85.0893 26.8612 81.3991C27.5389 75.2295 29.4947 69.0881 33.9643 66.3065C42.2008 61.1808 50.3767 58.9968 50.3767 58.9968C50.6647 58.1004 50.9884 55.1343 51.1581 52.0977C50.1149 51.0141 49.0811 49.8834 47.9908 48.8119C45.9152 46.772 45.6817 43.8565 44.9407 40.0956C43.5791 40.4826 43.1484 39.8345 42.787 39.2833C42.5406 38.9064 42.4438 38.4548 42.3515 38.0139C42.0197 36.429 41.6886 34.844 41.3574 33.259C41.1084 32.0685 40.8581 30.849 41.0269 29.6442C41.1077 29.0748 41.3103 28.4779 41.7781 28.1426C42.2458 27.8081 43.0271 27.8889 43.2614 28.4146C43.2614 28.4146 42.5029 20.9548 42.5029 21.5827C41.8696 20.8793 41.3682 19.3476 41.5782 18.1637C41.7875 16.9805 42.1638 15.829 42.3515 14.6424C42.5567 13.3394 42.5352 11.9947 42.9094 10.7294C43.4371 8.94589 44.6983 7.48412 45.9818 6.13869C46.891 5.18568 47.8313 4.25963 48.8569 3.43381C50.911 1.7829 53.3594 0.540507 55.9788 0.247051C56.8194 0.153515 57.6675 0.157494 58.5127 0.161565C59.461 0.166269 60.41 0.170973 61.3589 0.175677C62.3078 0.170973 63.2569 0.166269 64.2051 0.161565C65.0504 0.157494 65.8984 0.153515 66.739 0.247051C69.3584 0.540507 71.8069 1.7829 73.8609 3.43381C74.8866 4.25963 75.8268 5.18568 76.736 6.13869C78.0195 7.48403 79.2807 8.94589 79.8084 10.7294C80.1826 11.9947 80.1611 13.3394 80.3663 14.6424C80.5541 15.829 80.9303 16.9805 81.1396 18.1637C81.3495 19.3476 80.8482 20.8793 80.2149 21.5827C80.2149 20.9548 79.4564 28.4146 79.4564 28.4146C79.6906 27.8889 80.472 27.8082 80.9398 28.1426C81.4075 28.4778 81.6101 29.0747 81.6909 29.6442C81.8598 30.8489 81.6094 32.0685 81.3604 33.259C81.0293 34.844 80.6981 36.429 80.3663 38.0139C80.2741 38.4548 80.1772 38.9063 79.9308 39.2833C79.5695 39.8345 79.1387 40.4826 77.7771 40.0956C77.0362 43.8565 76.8026 46.772 74.727 48.8119C73.6367 49.8833 72.603 51.014 71.5598 52.0977C71.7294 55.1343 72.053 58.1004 72.3412 58.9968C72.3412 58.9968 80.517 61.1808 88.7535 66.3065C93.223 69.0881 95.1789 75.2295 95.8566 81.3991C96.262 85.0893 94.181 88.6012 90.7452 90.0064Z" fill="#177BEA"/>
<path d="M47.5258 57.7629C44.4372 58.7933 38.7098 60.9745 32.8976 64.5921C30.4646 66.1064 28.5256 68.5279 27.1337 71.7901C26.0185 74.4041 25.2513 77.5633 24.8542 81.1787C24.7842 81.8134 24.7728 82.446 24.8172 83.0707C15.1243 82.6574 8.87054 80.9136 5.17502 79.402C2.36719 78.2538 0.666433 75.3834 0.99752 72.3676C1.55141 67.3246 3.14986 62.3052 6.80304 60.0317C13.5346 55.8429 20.2171 54.0573 20.2171 54.0573C20.4526 53.325 20.7171 50.9009 20.8557 48.4187C20.003 47.533 19.1584 46.6089 18.2673 45.7334C16.5706 44.0663 16.3794 41.6832 15.7744 38.6094C14.6612 38.9257 14.3092 38.3961 14.0138 37.9451C13.8125 37.6369 13.7332 37.268 13.6577 36.908C13.3865 35.6124 13.116 34.3168 12.8454 33.0212C12.6421 32.048 12.4375 31.0513 12.5756 30.0667C12.6415 29.6016 12.807 29.1137 13.1893 28.8398C13.5716 28.5665 14.2103 28.6325 14.4014 29.0618C14.4014 29.0618 13.7816 22.9649 13.7816 23.4784C13.2641 22.9036 12.8542 21.6512 13.0258 20.684C13.1967 19.7168 13.5043 18.7752 13.6577 17.8055C13.826 16.7408 13.8078 15.6417 14.114 14.6072C14.5454 13.1502 15.5758 11.9548 16.625 10.8558C17.3681 10.0765 18.1366 9.31996 18.9752 8.64494C20.6537 7.29553 22.6546 6.27992 24.7955 6.04038C25.4826 5.96367 26.1758 5.96702 26.8671 5.97036C27.6417 5.97443 28.4177 5.97778 29.193 5.98176C29.969 5.97769 30.7443 5.97434 31.5196 5.97036C32.2101 5.96702 32.9034 5.96367 33.5906 6.04038C35.7314 6.28002 37.7323 7.29553 39.4116 8.64494C39.9668 9.09182 40.4911 9.57506 40.9979 10.0765C40.9891 10.1034 40.9811 10.1297 40.973 10.1565C40.6789 11.1506 40.5867 12.1447 40.5052 13.0216C40.4622 13.4826 40.4217 13.9175 40.3572 14.3266C40.271 14.8717 40.1324 15.4331 39.9864 16.0267C39.8457 16.5987 39.6997 17.1896 39.59 17.8108C39.3295 19.2794 39.7522 21.1316 40.5901 22.3975C40.6783 23.1351 40.8378 24.6144 41.0094 26.2565C40.8667 26.3279 40.7308 26.4093 40.6015 26.5015C40.0085 26.9269 39.2534 27.7682 39.0273 29.3639C38.8079 30.93 39.112 32.3871 39.3806 33.6719C39.7117 35.2569 40.0435 36.8419 40.3753 38.4268C40.4864 38.9586 40.6385 39.6867 41.0982 40.39C41.2779 40.6633 41.5768 41.1189 42.0626 41.5079C41.7019 43.2234 41.2382 44.6341 40.1196 45.7332C39.2286 46.6088 38.3832 47.5328 37.5305 48.4185C37.6692 50.9006 37.9337 53.3249 38.1692 54.0572C38.1694 54.0572 42.4034 55.1885 47.5258 57.7629Z" fill="#177BEA"/>
<path d="M75.1924 57.7629C78.2809 58.7933 84.0084 60.9745 89.8206 64.5921C92.2535 66.1064 94.1926 68.5279 95.5843 71.7901C96.6995 74.4041 97.4667 77.5633 97.8638 81.1787C97.9339 81.8134 97.9452 82.446 97.9008 83.0707C107.594 82.6574 113.847 80.9136 117.543 79.402C120.351 78.2538 122.052 75.3834 121.721 72.3676C121.167 67.3246 119.568 62.3052 115.915 60.0317C109.183 55.8429 102.501 54.0573 102.501 54.0573C102.265 53.325 102.001 50.9009 101.862 48.4187C102.715 47.533 103.56 46.6089 104.451 45.7334C106.147 44.0663 106.339 41.6832 106.944 38.6094C108.057 38.9257 108.409 38.3961 108.704 37.9451C108.906 37.6369 108.985 37.268 109.06 36.908C109.332 35.6124 109.602 34.3168 109.873 33.0212C110.076 32.048 110.281 31.0513 110.142 30.0667C110.077 29.6016 109.911 29.1137 109.529 28.8398C109.146 28.5665 108.508 28.6325 108.317 29.0618C108.317 29.0618 108.936 22.9649 108.936 23.4784C109.454 22.9036 109.864 21.6512 109.692 20.684C109.521 19.7168 109.214 18.7752 109.06 17.8055C108.892 16.7408 108.91 15.6417 108.604 14.6072C108.173 13.1502 107.142 11.9548 106.093 10.8558C105.35 10.0765 104.581 9.31996 103.743 8.64494C102.064 7.29553 100.063 6.27992 97.9225 6.04038C97.2354 5.96367 96.5422 5.96702 95.851 5.97036C95.0764 5.97443 94.3003 5.97778 93.5251 5.98176C92.7491 5.97769 91.9737 5.97434 91.1984 5.97036C90.5079 5.96702 89.8146 5.96367 89.1275 6.04038C86.9866 6.28002 84.9857 7.29553 83.3065 8.64494C82.7512 9.09182 82.2269 9.57506 81.7201 10.0765C81.7289 10.1034 81.737 10.1297 81.745 10.1565C82.0391 11.1506 82.1314 12.1447 82.2128 13.0216C82.2559 13.4826 82.2963 13.9175 82.3609 14.3266C82.447 14.8717 82.5857 15.4331 82.7317 16.0267C82.8723 16.5987 83.0184 17.1896 83.1281 17.8108C83.3885 19.2794 82.9659 21.1316 82.1279 22.3975C82.0397 23.1351 81.8803 24.6144 81.7087 26.2565C81.8513 26.3279 81.9873 26.4093 82.1165 26.5015C82.7095 26.9269 83.4646 27.7682 83.6907 29.3639C83.9101 30.93 83.606 32.3871 83.3374 33.6719C83.0063 35.2569 82.6745 36.8419 82.3427 38.4268C82.2316 38.9586 82.0796 39.6867 81.6198 40.39C81.4402 40.6633 81.1413 41.1189 80.6554 41.5079C81.0162 43.2234 81.4799 44.6341 82.5984 45.7332C83.4895 46.6088 84.3348 47.5328 85.1875 48.4185C85.0488 50.9006 84.7843 53.3249 84.5488 54.0572C84.5488 54.0572 80.3147 55.1885 75.1924 57.7629Z" fill="#177BEA"/>
</svg>
